<svg width="18" height="19" fill="none" xmlns="http://www.w3.org/2000/svg"><path d="m1.208 15.81-.746-.07.746.07Zm15.583 0 .747-.07-.747.07Zm-.762-8-.746.071.746-.07Zm-14.059 0 .747.071-.747-.07ZM4.25 6a.75.75 0 0 0 1.5 0h-1.5Zm8 0a.75.75 0 0 0 1.5 0h-1.5Zm-6.5 3a.75.75 0 0 0-1.5 0h1.5Zm-1.5.01a.75.75 0 0 0 1.5 0h-1.5Zm9.5-.01a.75.75 0 0 0-1.5 0h1.5Zm-1.5.01a.75.75 0 0 0 1.5 0h-1.5ZM3.96 6.75h10.08v-1.5H3.96v1.5Zm11.322 1.131.762 8 1.493-.142-.762-8-1.493.142ZM14.8 17.25H3.2v1.5h11.6v-1.5ZM1.955 15.882l.762-8-1.493-.143-.762 8 1.493.143ZM3.2 17.25a1.25 1.25 0 0 1-1.244-1.368l-1.493-.143A2.75 2.75 0 0 0 3.2 18.75v-1.5Zm12.846-1.368A1.25 1.25 0 0 1 14.8 17.25v1.5a2.75 2.75 0 0 0 2.738-3.01l-1.493.142ZM14.038 6.75c.645 0 1.184.49 1.245 1.131l1.493-.142A2.75 2.75 0 0 0 14.04 5.25v1.5ZM3.962 5.25a2.75 2.75 0 0 0-2.737 2.49l1.493.141A1.25 1.25 0 0 1 3.961 6.75v-1.5ZM5.75 5A3.25 3.25 0 0 1 9 1.75V.25A4.75 4.75 0 0 0 4.25 5h1.5ZM9 1.75A3.25 3.25 0 0 1 12.25 5h1.5A4.75 4.75 0 0 0 9 .25v1.5ZM4.25 5v1h1.5V5h-1.5Zm8 0v1h1.5V5h-1.5Zm-8 4v.01h1.5V9h-1.5Zm8 0v.01h1.5V9h-1.5Z" fill="#000D3A"/></svg>