<svg width="26" height="26" fill="none" xmlns="http://www.w3.org/2000/svg"><path d="M9.936 18h6.128v-2H9.936v2Zm6.128 0A3.936 3.936 0 0 1 20 21.936h2A5.936 5.936 0 0 0 16.064 16v2Zm-6.128-2A5.936 5.936 0 0 0 4 21.936h2A3.936 3.936 0 0 1 9.936 18v-2ZM16 9a3 3 0 0 1-3 3v2a5 5 0 0 0 5-5h-2Zm-3 3a3 3 0 0 1-3-3H8a5 5 0 0 0 5 5v-2Zm-3-3a3 3 0 0 1 3-3V4a5 5 0 0 0-5 5h2Zm3-3a3 3 0 0 1 3 3h2a5 5 0 0 0-5-5v2Zm11 7c0 6.075-4.925 11-11 11v2c7.18 0 13-5.82 13-13h-2ZM13 24C6.925 24 2 19.075 2 13H0c0 7.18 5.82 13 13 13v-2ZM2 13C2 6.925 6.925 2 13 2V0C5.82 0 0 5.82 0 13h2ZM13 2c6.075 0 11 4.925 11 11h2c0-7.18-5.82-13-13-13v2Z" fill="#1A1814"/></svg>