<svg width="24" height="24" fill="none" xmlns="http://www.w3.org/2000/svg"><path d="M13 18.653a1 1 0 0 0-2 0h2Zm-2 .014a1 1 0 1 0 2 0h-2Zm0-4a1 1 0 1 0 2 0h-2ZM7.035 7.982a1 1 0 1 0 1.93.52l-1.93-.52ZM11 18.653v.014h2v-.014h-2Zm4-9.44c0 .796-.496 1.218-1.563 1.946-.902.614-2.437 1.564-2.437 3.508h2c0-.723.465-1.107 1.563-1.856.933-.636 2.437-1.608 2.437-3.599h-2Zm-3-2.88c1.716 0 3 1.312 3 2.88h2c0-2.718-2.226-4.88-5-4.88v2Zm-3.034 2.17C9.29 7.3 10.522 6.333 12 6.333v-2c-2.31 0-4.387 1.506-4.965 3.65l1.93.52Zm-2.3-6.17h10.668v-2H6.667v2Zm15 4.334v10.666h2V6.667h-2Zm-4.332 15H6.667v2h10.667v-2Zm-15-4.334V6.667h-2v10.666h2Zm4.333 4.334a4.333 4.333 0 0 1-4.333-4.334h-2a6.333 6.333 0 0 0 6.333 6.334v-2Zm15-4.334a4.333 4.333 0 0 1-4.334 4.334v2a6.333 6.333 0 0 0 6.334-6.334h-2Zm-4.334-15a4.333 4.333 0 0 1 4.334 4.334h2A6.333 6.333 0 0 0 17.333.333v2Zm-10.666-2A6.333 6.333 0 0 0 .333 6.667h2a4.333 4.333 0 0 1 4.334-4.334v-2Z" fill="#1A1814"/></svg>