<svg width="28" height="26" fill="none" xmlns="http://www.w3.org/2000/svg"><path d="M21.667 25a1 1 0 0 0 2 0h-2ZM.333 25a1 1 0 1 0 2 0h-2ZM25 14.333a1 1 0 0 0-2 0h2Zm-2 .014a1 1 0 0 0 2 0h-2Zm0-2.68a1 1 0 0 0 2 0h-2Zm-2.636-4.833a1 1 0 0 0 1.94.488l-1.94-.488ZM6.667 18h10.667v-2H6.667v2Zm15 4.333V25h2v-2.667h-2ZM2.333 25v-2.667h-2V25h2Zm15-7a4.333 4.333 0 0 1 4.334 4.333h2A6.333 6.333 0 0 0 17.333 16v2ZM6.668 16a6.333 6.333 0 0 0-6.334 6.333h2A4.333 4.333 0 0 1 6.667 18v-2Zm9.667-9.667A4.333 4.333 0 0 1 12 10.667v2a6.333 6.333 0 0 0 6.334-6.334h-2ZM12 10.667a4.333 4.333 0 0 1-4.333-4.334h-2A6.333 6.333 0 0 0 12 12.667v-2ZM7.667 6.333A4.333 4.333 0 0 1 12 2V0a6.333 6.333 0 0 0-6.333 6.333h2ZM12 2a4.333 4.333 0 0 1 4.334 4.333h2A6.333 6.333 0 0 0 12 0v2Zm11 12.333v.014h2v-.014h-2Zm2.667-6.562c0 .43-.212.653-.923 1.173-.593.432-1.744 1.19-1.744 2.723h2c0-.373.183-.567.923-1.108.622-.455 1.744-1.227 1.744-2.788h-2ZM24 6c.903 0 1.667.75 1.667 1.77h2C27.667 5.73 26.09 4 24 4v2Zm-1.697 1.322A1.772 1.772 0 0 1 24 6V4a3.771 3.771 0 0 0-3.636 2.834l1.94.488Z" fill="#1A1814"/></svg>