<svg width="20" height="20" fill="none" xmlns="http://www.w3.org/2000/svg"><path d="M7.702 13.75h4.596v-1.5H7.702v1.5Zm4.596 0a2.952 2.952 0 0 1 2.952 2.952h1.5a4.452 4.452 0 0 0-4.452-4.452v1.5Zm-4.596-1.5a4.452 4.452 0 0 0-4.452 4.452h1.5a2.952 2.952 0 0 1 2.952-2.952v-1.5ZM12.25 7A2.25 2.25 0 0 1 10 9.25v1.5A3.75 3.75 0 0 0 13.75 7h-1.5ZM10 9.25A2.25 2.25 0 0 1 7.75 7h-1.5A3.75 3.75 0 0 0 10 10.75v-1.5ZM7.75 7A2.25 2.25 0 0 1 10 4.75v-1.5A3.75 3.75 0 0 0 6.25 7h1.5ZM10 4.75A2.25 2.25 0 0 1 12.25 7h1.5A3.75 3.75 0 0 0 10 3.25v1.5ZM18.25 10A8.25 8.25 0 0 1 10 18.25v1.5A9.75 9.75 0 0 0 19.75 10h-1.5ZM10 18.25A8.25 8.25 0 0 1 1.75 10H.25A9.75 9.75 0 0 0 10 19.75v-1.5ZM1.75 10A8.25 8.25 0 0 1 10 1.75V.25A9.75 9.75 0 0 0 .25 10h1.5ZM10 1.75A8.25 8.25 0 0 1 18.25 10h1.5A9.75 9.75 0 0 0 10 .25v1.5Z" fill="#000D3A"/></svg>