<svg width="28" height="26" viewBox="0 0 28 26" fill="none" xmlns="http://www.w3.org/2000/svg">
<path d="M21.6668 25C21.6668 25.5523 22.1146 26 22.6668 26C23.2191 26 23.6668 25.5523 23.6668 25H21.6668ZM0.333496 25C0.333496 25.5523 0.781216 26 1.3335 26C1.88578 26 2.3335 25.5523 2.3335 25H0.333496ZM25.0002 14.3333C25.0002 13.7811 24.5524 13.3333 24.0002 13.3333C23.4479 13.3333 23.0002 13.7811 23.0002 14.3333H25.0002ZM23.0002 14.3467C23.0002 14.8989 23.4479 15.3467 24.0002 15.3467C24.5524 15.3467 25.0002 14.8989 25.0002 14.3467H23.0002ZM23.0002 11.6667C23.0002 12.2189 23.4479 12.6667 24.0002 12.6667C24.5524 12.6667 25.0002 12.2189 25.0002 11.6667H23.0002ZM20.3638 6.83384C20.229 7.36943 20.5539 7.91288 21.0894 8.04768C21.625 8.18248 22.1684 7.85759 22.3032 7.322L20.3638 6.83384ZM6.66683 18H17.3335V16H6.66683V18ZM21.6668 22.3333V25H23.6668V22.3333H21.6668ZM2.3335 25V22.3333H0.333496V25H2.3335ZM17.3335 18C19.7267 18 21.6668 19.9401 21.6668 22.3333H23.6668C23.6668 18.8355 20.8314 16 17.3335 16V18ZM6.66683 16C3.16903 16 0.333496 18.8355 0.333496 22.3333H2.3335C2.3335 19.9401 4.27359 18 6.66683 18V16ZM16.3335 6.33333C16.3335 8.72657 14.3934 10.6667 12.0002 10.6667V12.6667C15.498 12.6667 18.3335 9.83113 18.3335 6.33333H16.3335ZM12.0002 10.6667C9.60696 10.6667 7.66683 8.72657 7.66683 6.33333H5.66683C5.66683 9.83113 8.50236 12.6667 12.0002 12.6667V10.6667ZM7.66683 6.33333C7.66683 3.94009 9.60696 2 12.0002 2V0C8.50236 0 5.66683 2.83553 5.66683 6.33333H7.66683ZM12.0002 2C14.3934 2 16.3335 3.94009 16.3335 6.33333H18.3335C18.3335 2.83553 15.498 0 12.0002 0V2ZM23.0002 14.3333V14.3467H25.0002V14.3333H23.0002ZM25.6668 7.77056C25.6668 8.2008 25.455 8.42399 24.7436 8.9436C24.1511 9.37644 23.0002 10.1345 23.0002 11.6667H25.0002C25.0002 11.2941 25.1826 11.0997 25.9234 10.5585C26.5454 10.1041 27.6668 9.33167 27.6668 7.77056H25.6668ZM24.0002 6C24.9028 6 25.6668 6.75045 25.6668 7.77056H27.6668C27.6668 5.73039 26.0902 4 24.0002 4V6ZM22.3032 7.322C22.4936 6.56548 23.2022 6 24.0002 6V4C22.2734 4 20.7748 5.20044 20.3638 6.83384L22.3032 7.322Z" fill="#1A1814"/>
</svg>
