<svg width="18" height="19" viewBox="0 0 18 19" fill="none" xmlns="http://www.w3.org/2000/svg">
<path d="M1.20848 15.8104L0.461851 15.7393L1.20848 15.8104ZM16.7914 15.8104L17.538 15.7393L16.7914 15.8104ZM16.0295 7.81038L15.2828 7.88149L16.0295 7.81038ZM1.97038 7.81038L2.717 7.88149L1.97038 7.81038ZM4.24994 6C4.24994 6.41421 4.58573 6.75 4.99994 6.75C5.41415 6.75 5.74994 6.41421 5.74994 6H4.24994ZM12.2499 6C12.2499 6.41421 12.5857 6.75 12.9999 6.75C13.4141 6.75 13.7499 6.41421 13.7499 6H12.2499ZM5.74994 9C5.74994 8.5858 5.41415 8.25 4.99994 8.25C4.58573 8.25 4.24994 8.5858 4.24994 9H5.74994ZM4.24994 9.01C4.24994 9.4242 4.58573 9.76 4.99994 9.76C5.41415 9.76 5.74994 9.4242 5.74994 9.01H4.24994ZM13.7499 9C13.7499 8.5858 13.4141 8.25 12.9999 8.25C12.5857 8.25 12.2499 8.5858 12.2499 9H13.7499ZM12.2499 9.01C12.2499 9.4242 12.5857 9.76 12.9999 9.76C13.4141 9.76 13.7499 9.4242 13.7499 9.01H12.2499ZM3.96137 6.75H14.0385V5.25H3.96137V6.75ZM15.2828 7.88149L16.0447 15.8815L17.538 15.7393L16.7761 7.73928L15.2828 7.88149ZM14.8004 17.25H3.19947V18.75H14.8004V17.25ZM1.9551 15.8815L2.717 7.88149L1.22376 7.73928L0.461851 15.7393L1.9551 15.8815ZM3.19947 17.25C2.46229 17.25 1.88521 16.6153 1.9551 15.8815L0.461851 15.7393C0.308091 17.3538 1.57768 18.75 3.19947 18.75V17.25ZM16.0447 15.8815C16.1146 16.6153 15.5376 17.25 14.8004 17.25V18.75C16.4222 18.75 17.6917 17.3538 17.538 15.7393L16.0447 15.8815ZM14.0385 6.75C14.6829 6.75 15.2217 7.23994 15.2828 7.88149L16.7761 7.73928C16.6417 6.32788 15.4563 5.25 14.0385 5.25V6.75ZM3.96137 5.25C2.54359 5.25 1.35818 6.32788 1.22376 7.73928L2.717 7.88149C2.7781 7.23994 3.31692 6.75 3.96137 6.75V5.25ZM5.74994 5C5.74994 3.20507 7.20504 1.75 8.99994 1.75V0.25C6.37659 0.25 4.24994 2.37665 4.24994 5H5.74994ZM8.99994 1.75C10.7948 1.75 12.2499 3.20507 12.2499 5H13.7499C13.7499 2.37665 11.6233 0.25 8.99994 0.25V1.75ZM4.24994 5V6H5.74994V5H4.24994ZM12.2499 5V6H13.7499V5H12.2499ZM4.24994 9V9.01H5.74994V9H4.24994ZM12.2499 9V9.01H13.7499V9H12.2499Z" fill="#000D3A"/>
</svg>
