<svg width="26" height="26" viewBox="0 0 26 26" fill="none" xmlns="http://www.w3.org/2000/svg">
<path d="M9.93636 18H16.0636V16H9.93636V18ZM16.0636 18C18.2376 18 20 19.7624 20 21.9364H22C22 18.6577 19.3423 16 16.0636 16V18ZM9.93636 16C6.6578 16 4 18.6577 4 21.9364H6C6 19.7624 7.76237 18 9.93636 18V16ZM16 9C16 10.6568 14.6568 12 13 12V14C15.7615 14 18 11.7615 18 9H16ZM13 12C11.3432 12 10 10.6568 10 9H8C8 11.7615 10.2386 14 13 14V12ZM10 9C10 7.34315 11.3432 6 13 6V4C10.2386 4 8 6.23857 8 9H10ZM13 6C14.6568 6 16 7.34315 16 9H18C18 6.23857 15.7615 4 13 4V6ZM24 13C24 19.0751 19.0751 24 13 24V26C20.1797 26 26 20.1797 26 13H24ZM13 24C6.92487 24 2 19.0751 2 13H0C0 20.1797 5.82029 26 13 26V24ZM2 13C2 6.92487 6.92487 2 13 2V0C5.82029 0 0 5.82029 0 13H2ZM13 2C19.0751 2 24 6.92487 24 13H26C26 5.82029 20.1797 0 13 0V2Z" fill="#1A1814"/>
</svg>
