<svg width="24" height="24" viewBox="0 0 24 24" fill="none" xmlns="http://www.w3.org/2000/svg">
<path d="M13.0002 18.6534C13.0002 18.1011 12.5524 17.6534 12.0002 17.6534C11.4479 17.6534 11.0002 18.1011 11.0002 18.6534H13.0002ZM11.0002 18.6667C11.0002 19.219 11.4479 19.6667 12.0002 19.6667C12.5524 19.6667 13.0002 19.219 13.0002 18.6667H11.0002ZM11.0002 14.6667C11.0002 15.219 11.4479 15.6667 12.0002 15.6667C12.5524 15.6667 13.0002 15.219 13.0002 14.6667H11.0002ZM7.03466 7.98209C6.89086 8.51533 7.20655 9.06417 7.73979 9.20797C8.27303 9.35177 8.82187 9.03607 8.96567 8.50284L7.03466 7.98209ZM11.0002 18.6534V18.6667H13.0002V18.6534H11.0002ZM15.0002 9.21216C15.0002 10.0095 14.504 10.431 13.4368 11.1587C12.5351 11.7735 11.0002 12.7226 11.0002 14.6667H13.0002C13.0002 13.9442 13.4652 13.5599 14.5635 12.8111C15.4963 12.1751 17.0002 11.2027 17.0002 9.21216H15.0002ZM12.0002 6.33337C13.7158 6.33337 15.0002 7.64535 15.0002 9.21216H17.0002C17.0002 6.49459 14.7736 4.33337 12.0002 4.33337V6.33337ZM8.96567 8.50284C9.29 7.30015 10.5224 6.33337 12.0002 6.33337V4.33337C9.69056 4.33337 7.61262 5.83888 7.03466 7.98209L8.96567 8.50284ZM6.66683 2.33337H17.3335V0.333374H6.66683V2.33337ZM21.6668 6.66671V17.3334H23.6668V6.66671H21.6668ZM17.3335 21.6667H6.66683V23.6667H17.3335V21.6667ZM2.3335 17.3334V6.66671H0.333496V17.3334H2.3335ZM6.66683 21.6667C4.27359 21.6667 2.3335 19.7266 2.3335 17.3334H0.333496C0.333496 20.8312 3.16903 23.6667 6.66683 23.6667V21.6667ZM21.6668 17.3334C21.6668 19.7266 19.7267 21.6667 17.3335 21.6667V23.6667C20.8314 23.6667 23.6668 20.8312 23.6668 17.3334H21.6668ZM17.3335 2.33337C19.7267 2.33337 21.6668 4.27347 21.6668 6.66671H23.6668C23.6668 3.16891 20.8314 0.333374 17.3335 0.333374V2.33337ZM6.66683 0.333374C3.16903 0.333374 0.333496 3.16891 0.333496 6.66671H2.3335C2.3335 4.27347 4.27359 2.33337 6.66683 2.33337V0.333374Z" fill="#1A1814"/>
</svg>
