<svg width="20" height="20" viewBox="0 0 20 20" fill="none" xmlns="http://www.w3.org/2000/svg">
<path d="M7.70227 13.75H12.2977V12.25H7.70227V13.75ZM12.2977 13.75C13.9282 13.75 15.25 15.0718 15.25 16.7023H16.75C16.75 14.2433 14.7567 12.25 12.2977 12.25V13.75ZM7.70227 12.25C5.24335 12.25 3.25 14.2433 3.25 16.7023H4.75C4.75 15.0718 6.07178 13.75 7.70227 13.75V12.25ZM12.25 7C12.25 8.2426 11.2426 9.25 10 9.25V10.75C12.0711 10.75 13.75 9.0711 13.75 7H12.25ZM10 9.25C8.7574 9.25 7.75 8.2426 7.75 7H6.25C6.25 9.0711 7.92893 10.75 10 10.75V9.25ZM7.75 7C7.75 5.75736 8.7574 4.75 10 4.75V3.25C7.92893 3.25 6.25 4.92893 6.25 7H7.75ZM10 4.75C11.2426 4.75 12.25 5.75736 12.25 7H13.75C13.75 4.92893 12.0711 3.25 10 3.25V4.75ZM18.25 10C18.25 14.5563 14.5563 18.25 10 18.25V19.75C15.3848 19.75 19.75 15.3848 19.75 10H18.25ZM10 18.25C5.44365 18.25 1.75 14.5563 1.75 10H0.25C0.25 15.3848 4.61522 19.75 10 19.75V18.25ZM1.75 10C1.75 5.44365 5.44365 1.75 10 1.75V0.25C4.61522 0.25 0.25 4.61522 0.25 10H1.75ZM10 1.75C14.5563 1.75 18.25 5.44365 18.25 10H19.75C19.75 4.61522 15.3848 0.25 10 0.25V1.75Z" fill="#000D3A"/>
</svg>
